<svg xmlns="http://www.w3.org/2000/svg" width="307.01" height="355.871" viewBox="0 0 307.01 355.871">
  <g id="gsap-greensock" transform="translate(0)">
    <path id="Path_4" data-name="Path 4" d="M48.173,155.568c-10.389,4.887-37.886,26.886-43.182,33.4-5.5,6.518-7.129-3.666-1.426-20.572,4.48-13.647,15.888-32.183,35.034-48.07,11.2-9.166,35.849-22.4,50.921-30.146,3.056-1.63,42.571-18.332,77.809-26.683,3.056-.815-3.666,5.092-4.685,8.351-5.3,15.48-111.01,81.882-111.01,81.882Zm148.894,186.78c1.833,11,.2,11.814-11.2,13.24s-19.758-2.852-22.813-5.7-3.666-9.166-.611-14.869c1.834-3.667,3.667-4.889,4.686-9.37a22.82,22.82,0,0,1,2.647-6.925c.814-1.427,1.019-2.853,1.222-12.833s0-28.72,1.019-36.663c1.019-8.147,36.257,3.666,36.257,3.666s-8.352,20.776-10.592,25.868-2.037,14.869-2.037,16.906-.814,6.11-1.426,6.314,2.037,5.5.814,8.555c-.815,2.852,1.833,10.185,2.036,11.814ZM210.511,30.911c-1.223-7.74,0-23.018,1.629-25.461,5.093-6.926,31.979-7.74,37.683.407,2.444,3.666,2.24,12.221,1.833,17.721s-1.833,17.313-2.037,21.184c-.2,2.852-29.738,7.332-36.256-.408-1.834-2.036-2.852-13.443-2.852-13.443ZM270.395,322.59c12.425,8.963,22,10.592,28.312,13.851s4.685,9.574-5.907,11.407c-8.555,1.629-22-1.63-30.96-1.63s-28.924,1.019-34.22-2.647c-6.11-4.277-3.463-12.222-3.463-12.222,1.63-4.48,5.7-14.462,4.481-22.609s-2.852-12.628-5.907-20.165-5.295-26.071-2.443-27.09,2.036,0,5.7.814a59.3,59.3,0,0,0,15.684,2.037,120.055,120.055,0,0,0,19.758-1.833c3.055-.611,5.5-1.223,4.48,5.092s-4.073,18.128-4.277,27.294-.2,19.758.408,21.591,5.092,3.87,8.351,6.11Z" fill="#010101"/>
    <path id="Path_5" data-name="Path 5" d="M226.806,51.28c-22.4,19.351-65.791,24.646-130.155,49.5-16.5,6.314-60.495,25.257-71.087,45.015,35.645-20.572,48.885,7.74,51.736,36.867,2.647,27.294,16.295,41.553,51.329,40.737,36.053-.814,47.052,20.165,57.032,44.812,19.35-94.308,50.311-112.639,70.271-128.73,42.368-34.424-9.776-95.123-29.126-88.2Z" fill="#8ac640"/>
    <path id="Path_6" data-name="Path 6" d="M226.806,51.28C173.033,70.019,119.87,74.7,57.339,113.2,42.47,122.367,11.1,143.142,4.991,182.862,27.8,157.6,80.558,125.83,145.127,105.665c32.59-10.185,56.422-16.906,85.345-28.109-2.036-13.037-2.036-18.129-3.666-26.276Z" fill="#8ac640"/>
    <path id="Path_7" data-name="Path 7" d="M295.448,162.9s-3.87,13.24-11.61,17.518c0,0-5.7,2.037-17.109-4.277-3.259-1.833-5.7-8.147-5.5-10.185a9.5,9.5,0,0,1,3.259-7.129s3.26-5.5,7.129-5.3,10.389.814,12.426-1.019c1.832-2.037,11.813,3.666,11.4,10.388Zm-83.1-128.119a159.108,159.108,0,0,1-2.24,16.906c-.2,1.223-6.314,1.833-10.8,3.667,8.555,24.442,60.088,24.238,66.81,12.221a88.75,88.75,0,0,0-12.832-6.925c-3.056-1.223-2.852-1.019-3.056-6.722s-.611-16.3-1.019-19.147-31.979-2.852-36.867,0Z" fill="#010101"/>
    <path id="Path_8" data-name="Path 8" d="M214.381,34.781s0,5.907-.611,11.61a48,48,0,0,1-.814,6.314c-.2,1.223,6.925,6.11,8.962,16.906,9.777,21.794,32.387,11,41.756.611a78.724,78.724,0,0,0-14.665-7.74c-3.056-1.223-1.63-3.87-1.833-9.573s-1.019-14.055-1.426-17.11-26.48-3.87-31.369-1.018Z" fill="#f0efef"/>
    <g id="Group_1" data-name="Group 1">
      <path id="Path_9" data-name="Path 9" d="M212.344,34.781s-.2,3.667-.814,7.944c2.647,2.647,6.11,6.314,8.759,8.555,1.833,1.63,6.313,1.426,10.388,1.426,3.666,0,6.925.407,8.351-.407,3.26-1.63,7.944-5.7,10.592-8.759-.2-3.666-.407-7.129-.61-8.759C248.8,31.929,217.232,31.929,212.344,34.781Z" fill="#010101"/>
      <path id="Path_10" data-name="Path 10" d="M230.88,50.261a45.1,45.1,0,0,1-7.537-.611,11.982,11.982,0,0,1-2.852-1.222c-1.426-1.019-2.852-2.24-4.48-3.463-3.26-2.444-3.463-3.87-3.463-4.48a94.763,94.763,0,0,0-.408-23.628s-1.426-5.5,6.314-6.926A100.089,100.089,0,0,1,230.879,8.3,65.127,65.127,0,0,1,243.3,9.931c7.74,1.426,6.314,6.926,6.314,6.926a94.794,94.794,0,0,0-.407,23.628c0,.61-.2,2.036-3.463,4.48-2.852,2.037-5.092,4.277-7.332,4.685A45.115,45.115,0,0,1,230.88,50.261Z" fill="#010101"/>
      <path id="Path_11" data-name="Path 11" d="M230.88,3.006c-13.443,0-16.092,3.666-19.962,7.74-.814,1.018-.2,7.129,1.223,20.165h1.833a24.368,24.368,0,0,1-1.019-7.944c.2-4.277,1.019-4.073.407-5.092-.814-1.223-2.444-3.26,1.223-5.3s9.369,1.629,16.295,1.833c6.925-.2,12.832-3.87,16.5-1.833s2.037,4.073,1.223,5.3.2.814.407,5.092a24.4,24.4,0,0,1-1.019,7.944h1.833c1.222-13.036,2.037-18.739,1.426-19.758-3.463-4.481-6.925-7.944-20.368-8.147Zm64.568,160.505s-3.87,12.425-11.406,16.7c-1.63-.814-1.426-2.036-2.852-3.87-.408-.61-1.834-1.019-2.444-1.629s-.407-1.63-1.426-2.444c-.815-.815-1.426-.2-2.241-.815-.814-.814-1.019-1.833-1.629-2.443-.408-.408-2.037-.611-2.444-1.019-1.019-1.019-9.98-2.852-9.573-4.889a17.723,17.723,0,0,1,2.444-5.3s3.87-5.7,7.739-5.5,7.537,1.019,9.574-.814c2.241-2.038,14.87,5.5,14.258,12.017Z" fill="#010101"/>
      <path id="Path_12" data-name="Path 12" d="M268.969,73.482s12.832-3.056,21.591,5.3a23.143,23.143,0,0,1,5.5,25.664,19.737,19.737,0,0,1,3.259,18.739c13.443,11.406,7.536,28.924-4.481,40.534,0,0-2.852-10.592-14.258-11.2.407-4.073-10.592-7.333-5.5-17.925-7.74-1.833-7.536-7.129-8.758-13.646-1.019-6.519,2.647-47.459,2.647-47.459Z" fill="#010101"/>
    </g>
    <path id="Path_13" data-name="Path 13" d="M264.284,79.185s14.869-7.536,23.628,1.019,6.313,17.924,3.666,24.442c2.24,2.647,7.536,10.185,4.277,19.146-.611,2.037-5.092,2.037-8.352,7.333,8.147-4.686,13.24-3.463,15.073,2.443,2.852,9.166-3.463,20.165-8.962,26.276,0-.2-.2-.408-.2-.611-.814,3.056-1.833,8.962-7.943,15.48-3.056,3.259-5.5,2.852-8.963,2.037-4.073-1.019-5.5-2.853-11.2-5.907-3.259-1.833-1.426-4.074-1.426-5.907a4.182,4.182,0,0,1,1.019-1.833,16.4,16.4,0,0,1,3.462-4.481s2.648-3.666,6.519-3.463,7.943-.61,8.962-1.629c0-7.129-8.147-7.333-5.3-19.554.2-.611,1.223-1.63,4.481-2.037-4.889-1.019-7.129-1.223-10.592-4.481a15.035,15.035,0,0,1-4.889-8.758c-1.221-6.314-3.258-39.515-3.258-39.515Z" fill="#f0efef"/>
    <path id="Path_14" data-name="Path 14" d="M221.306,66.353a36.835,36.835,0,0,0-19.554-13.036c-3.463-1.019-5.7,1.833-9.165,3.87-1.019-.611-5.5-2.648-7.944-1.223s-4.073,2.852-6.518,3.87c-1.223-.611-4.481-.611-7.129.407-2.648.815-6.722,2.648-10.592,7.944-2.444,8.759,43.181,2.24,43.181,2.24Z" fill="#010101"/>
    <path id="Path_15" data-name="Path 15" d="M221.714,66.353c-6.519-2.241-5.5-9.777-19.962-11-2.852-.2-4.685,2.036-6.722,3.462a12.727,12.727,0,0,1,2.648,4.277c-1.833-2.036-5.092-4.685-8.352-5.3-3.055-.61-5.092,1.63-8.351,3.26a21.188,21.188,0,0,1,2.036,2.852c-2.852-1.833-4.888-2.444-8.758-1.019a22.493,22.493,0,0,0-11.61,8.555c-2.444,8.759,41.145-1.019,41.145-1.019Z" fill="#8ac640"/>
    <path id="Path_16" data-name="Path 16" d="M260.007,69.612s0-2.241-.2-4.277c0-.407-1.629-1.426-1.629-1.833l-.407-.408s3.259-1.833,5.7-.814c2.647.814,4.073,4.277,4.073,4.277,4.685-1.629,5.092.2,7.333,2.648,4.889-1.019,5.5.814,8.555,5.3,0,0-3.666-.611-10.8.61-6.926,1.018-12.629-5.7-12.629-5.5Z" fill="#010101"/>
    <path id="Path_17" data-name="Path 17" d="M259.192,68.593s1.222-1.019.814-1.223c2.24-1.222,5.3-2.647,6.722,1.223,4.685-1.63,5.3.611,7.536,3.056,5.7-2.648,6.11.61,6.518,2.036a80.444,80.444,0,0,0-8.147.611C265.71,75.315,258.988,68.389,259.192,68.593Z" fill="#8ac640"/>
    <path id="Path_18" data-name="Path 18" d="M189.939,63.5s11.61,4.073,21.387,3.462c9.777-.814,26.479-1.629,35.441,3.667,0,0,9.166-3.26,17.721-1.019S288.727,86.517,284.043,102c-.408,1.019-3.056,2.648-6.111,3.667,0,0,1.63,6.925-1.222,12.628-2.852,5.5-9.166,16.092-9.37,30.757-.2,2.444-.61,7.536-1.018,9.98-15.888-.61-40.33-6.518-64.365-6.11.2-2.647.407-4.277.611-6.925h.61c-1.222-6.722-1.629-10.185-2.852-15.277-7.74-4.888-15.888-10.591-22.812-21.387-6.722-10.8,12.425-45.829,12.425-45.829Zm78.623,109.991s12.629,45.219-2.24,64.162a27.047,27.047,0,0,1-2.852,18.128c-.815,4.073-1.834,7.74-2.444,11.813-2.648,16.906-7.13,24.035-8.352,51.125l-12.222-.2s-1.426-19.554-5.7-29.942c-2.443-5.906-12.018-13.851-11.609-21.794.407-6.111,1.629-11.2,12.018-19.351.814-11.813-11-23.017-9.166-67.013Z" fill="#010101"/>
    <path id="Path_19" data-name="Path 19" d="M264.9,171.658c3.259,20.776,10.8,51.533-2.852,66.6a30.711,30.711,0,0,1,.2,11.61,47.509,47.509,0,0,1-2.24,7.943c-2.037,4.889-2.852,12.018-3.463,16.3-2.648,16.906-2.648,17.722-3.87,44.812l-12.222-.2s-1.426-19.554-5.7-29.941c-2.443-5.907-7.536-11-7.943-18.943-.407-6.11,3.87-18.331,14.055-17.924-.611-24.646-12.018-19.758-15.073-71.087ZM189.939,63.5a48.222,48.222,0,0,0,9.369,1.833,120.2,120.2,0,0,0,14.869-.2c9.777-.814,23.628-1.833,32.794,3.463a31.552,31.552,0,0,1,10.592-1.223c2.444.2,4.889,2.241,7.74,3.056,8.962,2.24,17.517,17.109,13.646,30.553-.407,1.019-3.259,0-6.518,1.019a26.982,26.982,0,0,1-2.241,16.295c-3.462,6.926-7.943,15.888-7.129,33-21.387-1.019-30.96-2.444-52.144-3.463a122.385,122.385,0,0,1-3.259-18.943,20.3,20.3,0,0,0,6.722-5.092c-6.11,1.019-8.555.611-12.222-1.426s-10.184-8.555-13.443-12.832c-.407-.408-2.647,6.313-7.739,6.518-1.834-2.648,5.906-10.185,4.48-13.036-5.091-10.389,4.483-39.516,4.483-39.516Z" fill="#f0efef"/>
    <path id="Path_20" data-name="Path 20" d="M266.524,154.752s.407,7.333.407,9.166c0,2.037,1.63,8.147,1.833,11-2.24,3.87-12.017,12.629-29.738,15.888-17.517,3.666-40.737-23.831-40.737-23.831.611-2.648,2.648-10.389,4.074-14.462a6.462,6.462,0,0,0,.611-1.833C204.808,148.031,266.524,154.752,266.524,154.752Z" fill="#010101"/>
    <path id="Path_21" data-name="Path 21" d="M262.044,155.364a58.733,58.733,0,0,0,1.426,12.018c1.018,5.907,2.647,9.777,2.647,13.647,0,11.813-15.48,9.776-28.517,10.184-17.517,3.667-32.386-23.831-32.386-23.831,1.222-4.685,2.037-9.98,3.87-14.462.2-2.444.611-5.5.814-6.925a520.461,520.461,0,0,1,52.552,2.443,17.666,17.666,0,0,1-.406,6.926Z" fill="#f0efef"/>
    <path id="Path_22" data-name="Path 22" d="M242.489,181.639s-10.795-24.035-43.182-16.9c-7.739,21.794-18.128,46.848-11.406,73.938-6.722,9.166-14.462,14.259-14.462,31.164s.815,19.758.815,19.758l23.831,1.223s7.74-9.98,10.795-20.776a44.19,44.19,0,0,0,1.019-14.869c.814-1.222,4.277-4.073,4.685-9.573,0,0,11.61-6.11,18.332-20.979,6.315-13.446,4.685-25.056,9.573-42.981Z" fill="#010101"/>
    <path id="Path_23" data-name="Path 23" d="M242.489,181.639c-.61-2.24-8.758-24.238-38.9-17.721-17.72,47.256-11.2,66.81-8.555,75.364-12.018,15.276-17.517,18.535-15.072,49.5h15.888c7.332-11.61,8.962-15.888,9.369-31.164,0-.611-2.24,1.222-3.87,3.259,1.223-6.314,4.685-7.536,7.333-11.406a12.068,12.068,0,0,0,2.24-7.333c14.258-9.573,19.554-21.591,22.609-34.016,2.445-8.554,5.3-22.609,8.962-26.479Z" fill="#f0efef"/>
    <g id="Group_2" data-name="Group 2">
      <path id="Path_24" data-name="Path 24" d="M192.179,148.846a42.825,42.825,0,0,1,10.389,1.833c4.685,1.629,4.685,2.647,6.518,4.685s6.314,5.092,5.5,8.147c-.408,1.63-1.426,2.037-2.852,3.463-.611.611-5.093,5.5-6.111,6.11-.611.407-1.426,1.019-2.037,1.426l-3.055,2.037c-2.037,1.019-3.463,1.63-5.7,1.426,0,0-5.092-.2-8.352-3.666,0,0-.407-1.63.408-2.444,0,0-4.278-3.667-5.5-6.111a10.32,10.32,0,0,1-.407-7.739c.407-1.835,8.35-6.927,11.2-9.167Zm5.093,198.187-.611,5.093s-1.833,2.24-15.48,2.037c-13.851-.2-17.517-4.481-18.739-6.722l-.814-5.3s2.648-3.87,3.259-3.87c4.481.407,19.758,6.518,30.35,8.147,1.016,0,1.219.407,2.035.611Zm29.534-10.388c0,2.24-.2,2.24-.2,4.481,2.444,1.833,8.556,2.852,20.165,2.647,16.906-.407,32.59,5.093,51.736,1.833l.2-3.666-1.833-.2-67.828-5.5Z" fill="#010101"/>
      <path id="Path_25" data-name="Path 25" d="M241.675,343.774h5.092c11-.407,21.388,2.037,32.59,2.648,5.907-.2,13.24-1.63,12.629-5.907l-57.847-4.889c-3.463,3.87-.816,7.129,7.536,8.148Zm-66.4-85.752c1.833,1.222,14.258,8.555,34.423,7.536-.408,3.87-.2,11.407-9.166,24.646-4.481,6.518-8.352,17.925-9.166,32.387.2,3.259,2.037,6.11-.407,10.388.814,2.647,4.073,7.943,5.7,11.2s2.444,6.926-8.352,7.13c-11,.2-28.72-1.019-26.275-9.573,1.223-4.481,4.685-9.166,5.093-11s.407-7.332,3.869-11c3.056-10.184,2.037-19.961,1.427-29.127-1.019-9.574-1.223-24.85,2.851-32.59ZM194.216,92.017c14.462-19.351,2.24-34.83-20.979-30.146-9.37,1.833-18.739,8.352-19.351,20.165-3.055.407-9.98.814-13.443,13.443-2.647,9.777-4.073,11.61-8.759,16.5-3.055,3.463.2,10.592,2.444,15.685,7.537,17.517,30.757,19.146,46.441,32.386,5.3-1.426,10.795-7.332,12.425-11.2-13.24-15.685-10.389-21.795-15.685-29.942,5.7-2.038,18.74-9.981,16.907-26.887Z" fill="#010101"/>
    </g>
    <path id="Path_26" data-name="Path 26" d="M191.364,90.795c.814-1.223,2.24-3.87,2.852-4.889.2-.2,2.444,3.666,2.648,3.463,5.5-8.963,6.925-22,.61-23.221a36.1,36.1,0,0,1-6.314-1.63c-4.073-1.426-7.739-1.426-14.258-.2-8.962,1.629-17.924,8.147-17.924,17.517,0,.611,6.313,2.444,8.147,9.981-3.056-4.278-8.352-8.963-14.666-4.889-6.722,4.277-3.259,14.054-12.221,24.238-3.056,3.463-2.648,7.537.61,15.684,5.3,12.833,30.35,19.758,44,31.979,3.259-1.426,5.5-4.685,7.129-7.129-9.166-9.573-12.833-18.536-15.48-25.054-3.259-7.536-6.926-11.813-14.055-17.518a37.114,37.114,0,0,1,8.147,4.074,8.112,8.112,0,0,0,6.926.611c8.76-3.053,13.445-15.275,13.852-23.014Z" fill="#f0efef"/>
    <path id="Path_27" data-name="Path 27" d="M279.968,94.054c-.611,7.74-6.314,3.87-9.369,2.444-6.111-2.648-12.222-4.481-19.351-4.481a102.59,102.59,0,0,0-24.238,2.648c-11,3.055-14.259,2.852-19.147.407-4.888-2.648-13.442-9.166-13.442-9.166s-.2,2.037,1.833,4.685c2.647,3.259,8.555,7.333,16.5,9.98,3.87,1.223,6.926.407,10.389-.407,18.128-4.481,37.274-5.3,53.365,4.481.815.407,3.667-.815,4.889-2.648C283.023,99.35,279.968,94.054,279.968,94.054Z" fill="#010101"/>
    <path id="Path_28" data-name="Path 28" d="M187.291,171.658c1.629,1.019,3.666,1.63,5.906,3.463a4.5,4.5,0,0,1-2.647-.814A28.747,28.747,0,0,1,187.291,171.658Z" fill="#0a1825"/>
    <path id="Path_29" data-name="Path 29" d="M246.156,10.135c-.611-1.833-5.093-5.093-15.48-5.093-11.2,0-14.462,3.463-14.665,5.3,0,.611-.815,7.13-1.019,9.777,0,0,0,3.259.2,8.147.2,3.259,1.019,5.092,1.426,9.37a23.044,23.044,0,0,0,3.87,11,9.384,9.384,0,0,0,2.852,1.426c4.074.814,11.2,1.018,15.073,0,2.24-.611,5.092-4.481,5.7-7.944.814-4.277,1.629-7.333,1.833-9.98.407-2.647.611-8.555.814-10.185a42.8,42.8,0,0,0-.61-11.813Z" fill="#f0efef"/>
    <path id="Path_30" data-name="Path 30" d="M224.769,261.892s10.8,4.685,37.479.611c0,0-7.536,37.886-4.073,56.828,0,0,3.462,4.889,29.127,14.258,0,0,11.406,2.852,11,8.556,0,0,.407,1.222-13.443.814s-26.887-2.852-36.053-2.852-18.943.407-20.572-2.24c-1.833-2.444.407-8.759,3.055-12.426,2.853-3.869,2.037-6.722,1.834-13.646-.613-18.128-14.464-36.867-8.353-49.9Z" fill="#010101"/>
    <path id="Path_31" data-name="Path 31" d="M222.528,265.355c-1.426,2.037.2,9.776,2.24,17.313s6.519,12.018,7.537,24.442c1.018,12.221,1.222,13.851-2.241,20.979s-4.481,13.647,7.536,13.851,18.536-.2,30.757,1.63,16.5,2.444,23.221,1.426,8.147-3.26,5.3-5.3-14.666-4.277-19.758-8.352c-4.889-3.666-18.739-9.777-18.942-11.406-.611-5.5-.815-25.461.2-31.979s2.444-15.888,2.852-18.332,2.444-4.889-1.019-4.074a117.9,117.9,0,0,1-26.275,2.037c-9.777-.61-10.795-2.851-11.407-2.239Z" fill="#8ac640"/>
    <path id="Path_32" data-name="Path 32" d="M229.454,328.294a32.579,32.579,0,0,0,12.425,2.852s-1.427,6.722.814,10.8-16.295,1.63-16.295,1.63l-.814-14.462Zm53.977,17.517c3.259-1.019,5.5-4.685,2.852-8.147-2.852-3.463-5.3-4.074-1.63-4.277s17.11,7.943,17.11,7.943l-6.926,6.314ZM221.917,273.3c4.685,1.63,11.814,2.037,17.925,1.833s15.276-1.019,21.184-3.055,3.462,2.24,3.462,2.24l-3.259,3.056s-7.74,3.055-20.368,2.852c-14.869-.2-19.351-1.833-19.351-1.833Zm.407,10.185c4.686,1.63,11.814,2.037,17.925,1.833s14.258-.2,20.165-2.444c2.444-.814,1.019,2.648,1.019,2.648l-1.019,1.833s-7.944,2.852-20.369,2.647c-14.869-.2-17.517-1.426-17.517-1.426Z" fill="#010101" opacity="0.3"/>
    <path id="Path_33" data-name="Path 33" d="M224.769,261.892s17.721,6.314,37.683,2.037c0,0-7.74,36.46-4.277,55.2,0,0,3.462,4.888,29.127,14.258,0,0,11.406,2.852,11,8.555,0,0,.407,1.223-13.443.814S257.971,339.9,248.8,339.9s-18.943.408-20.572-2.24c-1.833-2.444.407-8.759,3.055-12.425,2.853-3.87,2.037-6.722,1.834-13.647-.613-17.924-14.464-36.663-8.353-49.7Z" fill="none"/>
    <path id="Path_34" data-name="Path 34" d="M224.769,261.892a77.924,77.924,0,0,0,37.683,1.833s-7.74,36.664-4.277,55.4c0,0,3.462,4.888,29.127,14.258,0,0,11.406,2.852,11,8.555,0,0,.407,1.223-13.443.814s-27.091-4.277-36.053-2.852c-9.573,1.63-18.943,1.019-20.572-2.24-1.426-2.647.407-8.759,3.055-12.425,2.853-3.87,2.037-6.722,1.834-13.647-.613-17.924-14.464-36.663-8.353-49.7Z" fill="none"/>
    <path id="Path_35" data-name="Path 35" d="M208.881,140.7c0,1.426,15.888,9.369,24.646,11s27.091,0,29.942-.611l-.408,2.852s-21.794,3.259-38.5-1.222-14.869-5.5-14.869-5.5Z" fill="#010101"/>
    <path id="Path_36" data-name="Path 36" d="M174.865,314.443c2.444,1.223,11.2,3.463,16.906,2.241.814-.2,0-14.055,2.241-20.369,3.259-8.759,8.555-15.888,11-31.367a127.628,127.628,0,0,1-23.424-4.686c-6.517,19.962-4.276,37.071-6.721,54.181Zm13.648,12.833c1.426.407,2.444,2.036,2.852,1.019.814-1.834-1.426-5.3-1.63-7.74v-.2c-1.833-1.629-14.258-1.833-13.443-1.019-1.426,2.648-3.666,2.241-4.48,7.537-.407,2.647,2.852.407,5.906.2-5.5,3.666-11.813,8.352-12.832,12.425-1.222,5.7.815,7.333,6.926,10.389a65.763,65.763,0,0,0,16.5,1.222c5.5-1.019,6.519-3.666,4.889-7.333a73.939,73.939,0,0,1-4.686-16.5Z" fill="#f0efef"/>
    <path id="Path_37" data-name="Path 37" d="M190.753,62.686c6.722,3.87,16.092,2.852,19.554,2.648.815,0,8.963-1.426,9.37-1.223.814.2.814.815.814.815s-3.055,1.629-9.98,2.036c-6.518.407-14.258,0-18.535-2.036-5.093-2.24-1.223-2.24-1.223-2.24Zm69.254,3.87c1.222.814,9.166,3.87,12.629,7.536,3.055,3.26,1.426,3.056.814,2.241-.814-1.019-7.129-5.3-9.573-6.314s-5.5-2.852-5.5-3.259,1.63-.2,1.63-.2Z" fill="#010101"/>
    <path id="Path_38" data-name="Path 38" d="M189.734,151.086c5.907-.407,12.018,1.019,15.888,5.092,2.037,2.037,5.3,4.277,4.889,6.314,0,.611-1.223,2.241-2.24,3.463-.611.814-2.444,2.647-3.056,3.259-.814.611-3.666,2.852-4.277,3.259s-1.426,1.427-2.037,1.63c-2.036,1.019-4.277.2-6.314-.814s.408-1.223-1.833-2.852c-5.5-3.87-8.555-6.519-6.314-14.055.2-1.426,2.443-3.056,5.294-5.3Z" fill="#f0efef"/>
    <path id="Path_39" data-name="Path 39" d="M137.795,104.442C119.463,111.775,72.818,135,59.579,142.125c11,6.925,16.091,23.627,17.721,40.533.2,1.63.407,3.056.611,4.685a19.6,19.6,0,0,0,.61,3.056,1.22,1.22,0,0,0,.2.814c12.018-32.793,55-67.42,56.625-70.068.814-1.222-1.019-6.518,1.833-11.609,3.667-6.52,10.8-9.372.612-5.094Zm43.589,153.784c9.369-18.739,9.573-36.664,9.369-57.644,0-8.759,6.314-21.184,3.056-17.721-12.222,13.646-42.978,39.312-65.18,40.737C159.793,222.58,172.014,238.264,181.384,258.226Z" fill="#010101" opacity="0.4"/>
    <path id="Path_40" data-name="Path 40" d="M41.654,159.437c11.61-8.351,71.7-40.329,86.16-44.811,14.461-4.685,9.98-10.185,9.98-10.185S79.132,129.7,44.1,151.493" fill="#010101"/>
    <path id="Path_41" data-name="Path 41" d="M212.751,100.572c-4.685-1.833-8.351,3.667-7.129,8.963s12.222,11.2,11.61,30.553c-.407,15.888-3.87,22.4-3.87,22.4l-7.74-9.776s-1.222-22-3.87-25.258-11-9.166-14.258-12.221,3.666-7.129,3.259-12.833c-.407-5.5,3.463-16.5,3.463-16.5Zm28.313,86.77c-.407,15.276,3.056,37.886,4.481,48.682s3.259,11.61,0,16.5c-3.259,4.685-7.536,12.425-7.536,12.425l-14.055-1.223s11.2-14.258,11.813-16.906-5.7-22.812-5.7-22.812Zm-27.09-142.58c2.852,6.313,6.314,9.165,11.813,11,3.259,1.222,16.091,2.852,21.184-2.852,2.24-2.648.814-9.777.814-9.777L236.175,52.5,220.491,49.65l-1.833-4.685Z" fill="#010101" opacity="0.4"/>
    <path id="Path_42" data-name="Path 42" d="M215.2,58.816c5.3,3.463,18.536,6.722,22.2,7.333,3.666.814,9.573-3.87,12.425-5.092,3.056-1.426,8.352-2.241,14.462,3.259.611.611-1.426,3.259-1.426,3.259a23.454,23.454,0,0,1-3.056-1.019,9.205,9.205,0,0,0-5.5-1.222c-10.185,1.222-11.814,4.685-20.776,2.647s-11.2-3.666-19.961-3.259" fill="#8ac640" stroke="#010101" stroke-linejoin="round" stroke-miterlimit="10" stroke-width="1.586"/>
    <path id="Path_43" data-name="Path 43" d="M213.362,59.427c6.722,2.852,19.758,5.907,23.424,6.722s9.573-2.852,12.425-4.685c5.093-3.259,11.61-.611,14.666,2.852,2.036,2.24,2.852,3.666,2.852,4.277,0,.814-2.444,0-2.444,0-1.426-.611-3.056-.814-4.277-1.63-1.63-.814-3.26-2.036-5.7-1.833-10.185,1.223-12.222,4.685-20.98,2.648s-11-3.87-20.368-3.26" fill="#8ac640"/>
    <path id="Path_44" data-name="Path 44" d="M181.791,249.67c-.407-.407.407-.814,0-.814-2.647,0-6.314-2.037-8.352-4.889-8.758-12.628-21.591-20.979-44.811-20.368-34.831.814-48.682-13.443-51.329-40.737-1.426-14.869-5.5-29.331-13.851-37.479l-4.889,3.056c9.369,8.147,12.425,21.387,14.462,39.515,3.259,27.294,25.257,39.923,50.922,40.33,26.683.407,36.256,5.907,46.236,19.351a16,16,0,0,0,9.777,6.314Z" fill="#010101"/>
    <path id="Path_45" data-name="Path 45" d="M276.3,118.7c.611,3.055,2.24,8.962,5.5,11.813,1.427,1.426,1.63,1.833.408,1.833s-10.185-.407-10.185-.407l-2.444-4.277Z" fill="#010101" opacity="0.4"/>
  </g>
</svg>
