<svg xmlns="http://www.w3.org/2000/svg" width="510.157" height="115.935" viewBox="0 0 510.157 115.935">
  <g id="jquery-1" transform="translate(-0.981 -0.078)">
    <path id="Path_49" data-name="Path 49" d="M489.718,8.646l21.42.118s-39.824,53.964-43.076,58.362c-1.056,1.424-2.66,2.96-3.474,4.864-2.057,4.786-4.169,15.285-4.169,15.285l-19.6.1s3.05-10.944,2.924-16.773c-.11-5.092-2.71-10.178-4.168-15.285-1.474-5.17-3.475-15.286-3.475-15.286h20.15l2.779,11.117,30.688-42.5" fill="#1a1918" fill-rule="evenodd"/>
    <path id="Path_50" data-name="Path 50" d="M449.157,20.027c3.953,2.383,6.379,15.529,6.379,15.529s-20.684.305-31.94.305h-9.727L402.057,87.275H383.993s11.242-55.874,13.9-66c.86-3.28,5.892-2.717,14.389-2.717h13.569c8.762,0,19-1.119,23.31,1.473m-84.1,25.04a10.827,10.827,0,0,0-1.91-7.122c-2.113-3.258-4.064-4.016-9.623-4.19-15.7-.493-15.39,11.138-15.39,11.138Zm17.022-13.32c2.3,8.3-2.084,27.792-2.084,27.792s-22.894-.382-35.434,0c-3.9.119-8.566-.424-9.727,1.39-1.633,2.542.6,6.455,2.487,8.108,2.175,1.9,6.412,2.12,7.935,2.313,10.178,1.293,31.48.334,31.48.334l-3.69,16.34s-30.1,1.51-45.16-2.084a15.327,15.327,0,0,1-7.643-4.168c-.514-.555-.96-1.312-1.446-1.966a18.259,18.259,0,0,1-2.028-3.593c-3.439-9.164.4-26.72,4.169-36.128.437-1.09.986-2.473,1.564-3.648.722-1.465,1.333-3.119,1.91-3.995.388-.6.869-.993,1.272-1.563a23.329,23.329,0,0,1,1.507-1.91,28.634,28.634,0,0,1,4.864-4.168c6.273-4.7,17.626-8.345,31.265-6.949,5.135.528,12.89,2.362,16.675,7.643,1.014,1.41,1.515,4.21,2.084,6.253ZM299.229,18.49l17.516-.1s-9.762,46.307-14.737,68.888h-20.15c-14.082,0-26.623,1.744-31.959-8.338-5.176-9.789-.236-25.887,2.084-36.824,1.64-7.74,5.094-23.56,5.094-23.56l18.148-.166s-5.128,24.63-7.262,36.928c-.764,4.4-2.34,8.553-.694,11.81,1.563,3.1,3.752,3.322,10.421,3.475,2.113.05,9.033,0,9.033,0l12.506-52.11M217.244,51.84c1.834-6.516,4.509-13.582,4.169-19.454-.368-6.28-5.634-12-9.032-13.2-10.234-3.613-19.815,1.438-23.623,5.558-4.926,5.336-6.594,11.569-8.338,20.15-1.3,6.37-2.362,13.1,0,18.063,4.182,8.783,17.224,6.865,31.266,6.949,2.084-5.586,3.807-11.86,5.558-18.066Zm24.318-25.706c2,14.548-5.676,30.606-10.964,44.57,5.392.487,10.117-.075,10.457.327.354.521-3.614,16.668-5,16.71-4.279.111-18.459.229-24.372.229-19.295,0-37.345,1.257-46.55-8.337-3.738-3.9-6.323-10.583-6.949-15.286-1.042-7.851.264-16.5,2.085-23.622a71.5,71.5,0,0,1,6.948-18.066C175.328,8.507,189.432-2,213.075.427A44.034,44.034,0,0,1,228.361,5.29c.284.167,1.279.959,1.507,1.1,5.559,3.537,10.624,11.978,11.694,19.746Zm-85.369-7.56c-1.167,5.315-2.334,11.34-3.564,16.592H133.175c1.507-5.822,2.661-11.61,4.169-16.675,6.225,0,12.013.083,18.85.083M132.48,40.03h18.76c-2.453,13.576-7.31,35.475-11.117,50.719-2.383,9.54-3.974,16.5-10.422,21.538-.577.452-.91.237-1.39.695-1.188,1.133-6.684,2.447-9.726,2.779-4.947.536-10.54.07-16.62-.055,1.591-5.815,3.391-12.8,4.809-18.01,14.82,1.794,15.195-12.214,18.064-25.706,1.66-7.8,6.691-28.834,7.642-31.96" fill="#1a1918" fill-rule="evenodd"/>
    <g id="Group_3" data-name="Group 3">
      <path id="Path_51" data-name="Path 51" d="M88.708,75.464l-.4,1.042C81.456,89.846,69.317,98.03,52,98.391a50.757,50.757,0,0,1-20.844-4.168A53.843,53.843,0,0,1,6.148,70.6c-7.164-13.875-8.456-33.176,6.44-47.592.23,0-1.807,3.126-1.577,3.126l-.41,1.334C-.133,61.074,32.938,89.874,65.086,86.58c7.726-.792,17.578-5.023,23.622-11.116" fill="#21609b" fill-rule="evenodd"/>
      <path id="Path_52" data-name="Path 52" d="M69.254,61.568a30.759,30.759,0,0,0,21.539-9.032c-4.377,11.11-17.05,18.251-34.044,15.98-14.23-1.9-27.785-16.223-29.181-30.571C26.547,27.5,30.186,21.271,36.183,13.711a25.359,25.359,0,0,0-3.057,8.948C30.848,45.247,51.17,61.449,69.254,61.568" fill="#21609b" fill-rule="evenodd"/>
      <path id="Path_53" data-name="Path 53" d="M89.98,33.512c-1.257,2.884-8.5,8.33-11.693,9.011-12.659,2.7-20.766-3.306-25.013-10.137a31.284,31.284,0,0,1-2.007-4.515c-1.647-5.6-.89-14.07,4.023-18.454a23.069,23.069,0,0,0-.917,12.159,27,27,0,0,0,3.349,7.316C60.34,32.7,62,33.624,65.364,35.646a20.274,20.274,0,0,0,3.842,1.84c3.189.939,9.922,3.412,20.775-3.974" fill="#21609b" fill-rule="evenodd"/>
    </g>
  </g>
</svg>
