<svg xmlns="http://www.w3.org/2000/svg" width="128.124" height="78.822" viewBox="0 0 128.124 78.822">
  <g id="pug" transform="translate(-0.188 -26.3)">
    <path id="Path_60" data-name="Path 60" d="M107.4,50.9c-.2-4.4.4-8.3-1.6-11.6C101,31.1,89,26.3,65,26.3V27h0v-.7c-24,0-36.6,4.8-41.4,13.1-1.9,3.4-1.7,7.2-2,11.6-.2,3.5-1.8,7.2-1.1,11.2.8,5.2,1.1,10.4,1.9,15.2.6,3.9,6,7.2,6.5,10.9,1.4,10.2,12,14.9,36,14.9v.8H65v-.8c24,0,34.2-4.7,35.5-14.9.5-3.8,5.5-7,6.1-10.9.8-4.8,1.1-10,1.9-15.2.7-4-.9-7.8-1.1-11.3Z" fill="#efcca3"/>
    <path id="Path_61" data-name="Path 61" d="M64.6,54.5c4.3.1,7.3,2.8,10.1,5.3,3.3,2.9,8.9,4.9,11.2,7.4s5.3,5,6.4,8.9a46.25,46.25,0,0,1,1.4,10.2c0,1.3.7,1,2.7,0,4.7-2.3,9.9-8.5,9.9-8.5-.6,3.9-5.7,7.4-6.2,11.1C98.9,99.1,89,104,64.5,104H65" fill="#ccac8d"/>
    <path id="Path_62" data-name="Path 62" d="M80.4,46.7c.9,3.1,4.1,13.6-2.1,10.1,0,0,2.6,1.5,4.2,7.2,1.7,5.7,5.8,6.4,5.8,6.4s6.7,1.3,11.7-3c4.2-3.6,4.9-10,3.1-14.9-1.8-4.8-5-6.3-9.7-7.3C88.7,44.1,79.3,43.2,80.4,46.7Z" fill="#ccac8d"/>
    <circle id="Ellipse_2" data-name="Ellipse 2" cx="8.8" cy="8.8" r="8.8" transform="translate(83.5 49.3)"/>
    <circle id="Ellipse_3" data-name="Ellipse 3" cx="2.3" cy="2.3" r="2.3" transform="translate(87.7 51.9)" fill="#fff"/>
    <path id="Path_63" data-name="Path 63" d="M78.9,57.7s7.9,5.4,12.2,10.7,4.2,6.3,4.2,6.3l-3.1,1.4s-4.4-8.3-9.8-11.4c-5.5-3.1-6.1-5.7-6.1-5.7l2.6-1.3Z" fill="#efcca3"/>
    <path id="Path_64" data-name="Path 64" d="M64.9,54.5c-4.3.1-7.5,2.8-10.4,5.3-3.3,2.9-9.1,4.9-11.4,7.4s-5.4,5-6.5,8.9a48.073,48.073,0,0,0-1.5,10.2c0,1.3.2,1.4-2.7,0-4.7-2.2-9.9-8.5-9.9-8.5.6,3.9,5.7,7.4,6.2,11.1C30.1,99.1,40,104,64.5,104H65" fill="#ccac8d"/>
    <path id="Path_65" data-name="Path 65" d="M88.1,71.4C83.3,65.5,75.6,60,64.9,60h-.1c-10.7,0-18.4,5.5-23.2,11.4-5,6.1-4.6,8.5-4.6,14.3,0,21,7.4,15,12.3,17.6,5,2.5,10.2,1.7,15.5,1.7h.1c5.4,0,10.5.7,15.5-1.8,4.9-2.5,12.3,3.7,12.3-17.3.1-5.8.4-8.4-4.6-14.5Z" fill="#56332b"/>
    <path id="Path_66" data-name="Path 66" d="M64.4,65.2s-.7,9.7-2.1,11.6l2.6-.6Z" fill="#442823"/>
    <path id="Path_67" data-name="Path 67" d="M65.1,65.2s.7,9.7,2.1,11.6l-2.6-.6Z" fill="#442823"/>
    <path id="Path_68" data-name="Path 68" d="M56.7,62.9c-1-2.3,2.6-6,8.3-6.1,5.7,0,9.3,3.7,8.3,6.1S68.7,66,65,66.1c-3.6-.1-7.3-.8-8.3-3.2Z" fill="#56332b"/>
    <path id="Path_69" data-name="Path 69" d="M65,65.2c0-.4,3.4-.5,5.2-1.7,0,0-3.7,1.2-4.5.7a2.415,2.415,0,0,1-1-1.6,3.27,3.27,0,0,1-.9,1.6c-.7.4-4.9-.7-4.9-.7s5.6,1.4,5.6,1.7-.1,1.3-.1,2c0,2.5,0,8.7.4,9.2.6.9.4-6.7.4-9.2C65.1,66.4,65.1,65.6,65,65.2Z"/>
    <path id="Path_70" data-name="Path 70" d="M65.2,78.6c1.7,0,4.7,1.2,7.4,3.1-2.6-2.9-5.7-4.9-7.4-4.9-1.8,0-5.6,2.2-8.3,5.4C59.7,80,63.3,78.6,65.2,78.6Z" fill="#7f4a41"/>
    <path id="Path_71" data-name="Path 71" d="M64.5,96.3c-3.8,0-7.5-1.2-10.9-2.1-.7-.2-1.4.3-2.1.1-6.3-2-11.4-5.4-14.5-9.7v1c0,21,7.4,15.1,12.3,17.6,5,2.5,10.2,1.7,15.5,1.7h.1c5.4,0,10.5.7,15.5-1.8,4.9-2.5,12.3,3.6,12.3-17.4a16.95,16.95,0,0,1,.1-2.3C89.9,88.1,84.6,91.8,78,94c-.6.2-2-.3-2.6-.2-3.6,1.2-6.8,2.5-10.9,2.5Z" fill="#442823"/>
    <path id="Path_72" data-name="Path 72" d="M55,85s-2.5,7.5-.8,10.8l-2.3-1S53.6,87.2,55,85Zm19.8,0s2.5,7.5.8,10.8l2.3-1s-1.8-7.6-3.1-9.8Z" fill="#442823"/>
    <path id="Path_73" data-name="Path 73" d="M48.6,46.7c-.9,3.1-4.1,13.6,2.1,10.1,0,0-2.6,1.5-4.2,7.2s-5.8,6.4-5.8,6.4S34,71.7,29,67.4c-4.2-3.6-4.9-10-3.1-14.9s5-6.3,9.7-7.3c4.7-1.1,14-2,13,1.5Z" fill="#ccac8d"/>
    <path id="Path_74" data-name="Path 74" d="M64.9,76.8c2.7,0,11.1,5.8,11.2,12.9v-.4c0-7.4-6.8-13.3-11.2-13.3S53.7,82,53.7,89.3v.4C53.8,82.6,62.2,76.8,64.9,76.8Z"/>
    <ellipse id="Ellipse_4" data-name="Ellipse 4" cx="0.8" cy="1.5" rx="0.8" ry="1.5" transform="translate(65.559 60.249) rotate(-14.465)" fill="#331712"/>
    <ellipse id="Ellipse_5" data-name="Ellipse 5" cx="0.8" cy="1.5" rx="0.8" ry="1.5" transform="translate(62.068 59.837) rotate(17.235)" fill="#331712"/>
    <circle id="Ellipse_6" data-name="Ellipse 6" cx="8.8" cy="8.8" r="8.8" transform="translate(28.4 49.3)"/>
    <circle id="Ellipse_7" data-name="Ellipse 7" cx="2.3" cy="2.3" r="2.3" transform="translate(37.2 51.9)" fill="#fff"/>
    <path id="Path_75" data-name="Path 75" d="M67.5,58.2c0-.1-2.3,1-2.9,1.1-.6-.1-2.9-1.2-2.9-1.1Z" fill="#7f4a41"/>
    <path id="Path_76" data-name="Path 76" d="M50,57.7s-7.9,5.4-12.2,10.7-4.2,6.3-4.2,6.3l3.1,1.4s4.4-8.3,9.8-11.4S52.6,59,52.6,59Z" fill="#efcca3"/>
    <path id="Path_77" data-name="Path 77" d="M32.7,41.7S30,49.1,24,52.2C24,52.2,33.4,51.1,32.7,41.7Zm63.1,0s2.7,7.4,8.7,10.5C104.5,52.2,95.1,51.1,95.8,41.7ZM78.7,55.5s-5.9-6.2-13.8-6.4h.2c-8,.2-13.8,6.4-13.8,6.4,6.9-4.8,12.8-4.7,13.8-4.7a25.7,25.7,0,0,1,13.6,4.7Zm-6.9-13s-3-4.2-7-4.3H65c-3,.1-6.9,4.3-6.9,4.3A10.366,10.366,0,0,1,65,39.3S68.3,39.2,71.8,42.5ZM37.2,73.2s-4.7,2.3-8.1.9H29c-3-1.7-4.5-6.8-4.5-6.8S27.5,76.3,37.2,73.2Zm54.8,0s4.7,2.3,8.1.9c4-1.7,4.6-6.8,4.6-6.8S101.7,76.3,92,73.2Z" fill="#ccac8d"/>
    <path id="Path_78" data-name="Path 78" d="M42.6,41.2a22.934,22.934,0,0,1,10.3.5c4.3,1.5.8,7,1.7,7.3s2.1-3.8,10.1-3.4c8.1.4,9,4,10.1,3.4s-1.1-10,11-7.8c0,0-12.7-3.4-12.1,5.8,0,0-7.3-5.6-17.5-.6C56.3,46.4,58.9,37.8,42.6,41.2Zm44.3,0c.2,0,.3.1.4.1S87.2,41.2,86.9,41.2ZM86.9,41.2ZM39.1,28.9S28.3,42.5,26.7,47.7c-1.6,5.3-2.8,27-4.2,30.1l-5-21.4,9.2-22.3,12.4-5.2Zm50.8,0s10.8,13.6,12.4,18.8c1.6,5.3,2.8,27,4.2,30.1l5-21.4-9.2-22.3L89.9,28.9Z" fill="#ccac8d"/>
    <path id="Path_79" data-name="Path 79" d="M89.4,28.9s11.6,9.7,15,20.9,2,24.8,4.6,26.5c3.7,2.4,7.9-11.9,9.3-13.4,2.2-2.4,9.5-8.5,10-9.6s-14.8-17.8-21.5-21.1c-8.1-3.8-18.1-4.1-17.4-3.3Z" fill="#56332b"/>
    <path id="Path_80" data-name="Path 80" d="M99.3,34.9S113,52.4,112.8,74.2L118.3,63a82.2,82.2,0,0,0-19-28.1Z" fill="#442823"/>
    <path id="Path_81" data-name="Path 81" d="M39.1,28.9s-11.6,9.7-15,20.9-2,24.8-4.6,26.5c-3.7,2.4-7.9-11.9-9.3-13.4C8,60.5.7,54.4.2,53.3S15,35.5,21.7,32.2c8.1-3.8,18.1-4.1,17.4-3.3Z" fill="#56332b"/>
    <path id="Path_82" data-name="Path 82" d="M29.2,34.9S15.5,52.4,15.7,74.2L10.3,63S15.1,48.7,29.2,34.9Z" fill="#442823"/>
    <path id="Path_83" data-name="Path 83" d="M21.8,74.6s1,5.4,2.6,7.1.5-1.3.5-1.3-1.7-.9-1.4-7.8-1.7,2-1.7,2Zm85.3,0s-1,5.4-2.6,7.1-.5-1.3-.5-1.3,1.7-.9,1.4-7.8,1.7,2,1.7,2Z" fill="#ccac8d"/>
    <g id="Group_4" data-name="Group 4">
      <circle id="Ellipse_8" data-name="Ellipse 8" cx="0.8" cy="0.8" r="0.8" transform="translate(53.7 69.7)" fill="#442823"/>
      <circle id="Ellipse_9" data-name="Ellipse 9" cx="0.8" cy="0.8" r="0.8" transform="translate(49.1 74.5)" fill="#442823"/>
      <circle id="Ellipse_10" data-name="Ellipse 10" cx="0.8" cy="0.8" r="0.8" transform="translate(47.6 69.7)" fill="#442823"/>
    </g>
    <g id="Group_5" data-name="Group 5">
      <circle id="Ellipse_11" data-name="Ellipse 11" cx="0.8" cy="0.8" r="0.8" transform="translate(73.2 69.7)" fill="#442823"/>
      <circle id="Ellipse_12" data-name="Ellipse 12" cx="0.8" cy="0.8" r="0.8" transform="translate(77.8 74.5)" fill="#442823"/>
      <circle id="Ellipse_13" data-name="Ellipse 13" cx="0.8" cy="0.8" r="0.8" transform="translate(79.3 69.7)" fill="#442823"/>
    </g>
  </g>
</svg>
